<svg width="30" height="30" viewBox="0 0 30 30" fill="none" xmlns="http://www.w3.org/2000/svg">
<path d="M24.375 27.5C24.8723 27.5 25.3492 27.3025 25.7008 26.9508C26.0525 26.5992 26.25 26.1223 26.25 25.625V21.25C26.25 20.7527 26.0525 20.2758 25.7008 19.9242C25.3492 19.5725 24.8723 19.375 24.375 19.375C22.9125 19.375 21.475 19.15 20.1 18.6875C19.7713 18.5837 19.4204 18.572 19.0854 18.6535C18.7505 18.735 18.4443 18.9068 18.2 19.15L16.4 20.95C13.2903 19.253 10.7345 16.6972 9.0375 13.5875L10.825 11.8C11.3375 11.3125 11.525 10.5875 11.3 9.8875C10.85 8.525 10.625 7.0875 10.625 5.625C10.625 5.12772 10.4275 4.65081 10.0758 4.29917C9.72419 3.94754 9.24728 3.75 8.75 3.75H4.375C3.87772 3.75 3.40081 3.94754 3.04917 4.29917C2.69754 4.65081 2.5 5.12772 2.5 5.625C2.5 17.6875 12.3125 27.5 24.375 27.5ZM4.375 5H8.75C8.91576 5 9.07473 5.06585 9.19194 5.18306C9.30915 5.30027 9.375 5.45924 9.375 5.625C9.375 7.225 9.625 8.7875 10.1125 10.275C10.175 10.45 10.1625 10.7 9.9625 10.9L7.5 13.35C9.5625 17.3875 12.5875 20.4125 16.6375 22.5L19.075 20.0375C19.25 19.8625 19.4875 19.8125 19.7125 19.875C21.2125 20.375 22.775 20.625 24.375 20.625C24.5408 20.625 24.6997 20.6908 24.8169 20.8081C24.9342 20.9253 25 21.0842 25 21.25V25.625C25 25.7908 24.9342 25.9497 24.8169 26.0669C24.6997 26.1842 24.5408 26.25 24.375 26.25C13 26.25 3.75 17 3.75 5.625C3.75 5.45924 3.81585 5.30027 3.93306 5.18306C4.05027 5.06585 4.20924 5 4.375 5Z" fill="black"/>
</svg>
