<svg width="100" height="100" viewBox="0 0 100 100" fill="none" xmlns="http://www.w3.org/2000/svg">
<path d="M71.457 40L41.6654 69.7917L28.332 56.4583L31.2487 53.5L41.6654 63.9167L68.4987 37.0417L71.457 40ZM47.9154 12.5C69.7904 12.5 87.4987 30.2083 87.4987 52.0833C87.4987 73.9583 69.7904 91.6667 47.9154 91.6667C26.0404 91.6667 8.33203 73.9583 8.33203 52.0833C8.33203 30.2083 26.0404 12.5 47.9154 12.5ZM47.9154 16.6667C28.3737 16.6667 12.4987 32.5417 12.4987 52.0833C12.4987 71.625 28.3737 87.5 47.9154 87.5C67.457 87.5 83.332 71.625 83.332 52.0833C83.332 32.5417 67.457 16.6667 47.9154 16.6667Z" fill="black"/>
</svg>
