<svg width="100" height="100" viewBox="0 0 100 100" fill="none" xmlns="http://www.w3.org/2000/svg">
<path d="M22.918 58.334C25.3193 58.3335 27.6471 59.1627 29.5073 60.6813C31.3676 62.1998 32.646 64.3145 33.1263 66.6673H62.5013V25.0007H16.668C14.4578 25.0007 12.3382 25.8786 10.7754 27.4414C9.21261 29.0042 8.33464 31.1238 8.33464 33.334V66.6673H12.7096C13.1899 64.3145 14.4683 62.1998 16.3286 60.6813C18.1888 59.1627 20.5166 58.3335 22.918 58.334ZM22.918 79.1673C20.5166 79.1678 18.1888 78.3386 16.3286 76.82C14.4683 75.3015 13.1899 73.1868 12.7096 70.834H4.16797V33.334C4.16797 30.0188 5.48493 26.8394 7.82913 24.4951C10.1733 22.1509 13.3528 20.834 16.668 20.834H62.5013C63.6064 20.834 64.6662 21.273 65.4476 22.0544C66.229 22.8358 66.668 23.8956 66.668 25.0007V33.334H79.168L91.668 50.0007V70.834H83.1263C82.6481 73.1888 81.3706 75.3058 79.5102 76.8264C77.6497 78.3471 75.3208 79.1778 72.918 79.1778C70.5151 79.1778 68.1862 78.3471 66.3258 76.8264C64.4653 75.3058 63.1878 73.1888 62.7096 70.834H33.1263C32.646 73.1868 31.3676 75.3015 29.5073 76.82C27.6471 78.3386 25.3193 79.1678 22.918 79.1673ZM22.918 62.5006C21.2604 62.5006 19.6707 63.1591 18.4986 64.3312C17.3264 65.5033 16.668 67.093 16.668 68.7506C16.668 70.4083 17.3264 71.998 18.4986 73.1701C19.6707 74.3422 21.2604 75.0006 22.918 75.0006C24.5756 75.0006 26.1653 74.3422 27.3374 73.1701C28.5095 71.998 29.168 70.4083 29.168 68.7506C29.168 67.093 28.5095 65.5033 27.3374 64.3312C26.1653 63.1591 24.5756 62.5006 22.918 62.5006ZM72.918 58.334C75.3193 58.3335 77.6471 59.1627 79.5073 60.6813C81.3676 62.1998 82.646 64.3145 83.1263 66.6673H87.5013V51.334L86.5013 50.0007H66.668V60.4173C68.418 59.1256 70.5846 58.334 72.918 58.334ZM72.918 62.5006C71.2604 62.5006 69.6707 63.1591 68.4986 64.3312C67.3265 65.5033 66.668 67.093 66.668 68.7506C66.668 70.4083 67.3265 71.998 68.4986 73.1701C69.6707 74.3422 71.2604 75.0006 72.918 75.0006C74.5756 75.0006 76.1653 74.3422 77.3374 73.1701C78.5095 71.998 79.168 70.4083 79.168 68.7506C79.168 67.093 78.5095 65.5033 77.3374 64.3312C76.1653 63.1591 74.5756 62.5006 72.918 62.5006ZM66.668 37.5007V45.834H83.3346L77.0846 37.5007H66.668Z" fill="#252525"/>
</svg>
