<svg width="100" height="100" viewBox="0 0 100 100" fill="none" xmlns="http://www.w3.org/2000/svg">
<path d="M81.6235 64.5833L74.0402 59.1667C75.2902 54.6667 75.3735 49.7917 74.0402 44.9167L81.6235 39.5833L75.5819 29.1667L67.1235 33C63.8319 29.6667 59.6652 27.0833 54.7902 25.875L53.9569 16.6667H41.8735L41.0402 25.875C36.1652 27.0833 31.9985 29.6667 28.7069 33L20.2485 29.1667L14.2069 39.5833L21.7902 44.9167C20.4569 49.7917 20.5402 54.6667 21.7902 59.1667L14.2069 64.5833L20.2485 75L28.7069 71.125C31.9985 74.4167 36.1652 76.9167 41.0402 78.2083L41.8735 87.5H53.9569L54.7902 78.2083C59.6652 76.9167 63.8319 74.4167 67.1235 71.125L75.5819 75L81.6235 64.5833ZM56.2485 12.5C57.3735 12.5 58.3319 13.3333 58.3319 14.4167L59.0819 22.9167C62.2485 24.0833 65.0819 25.7917 67.6235 27.8333L75.3319 24.2083C76.2902 23.7083 77.4985 24.0417 78.0819 25L86.4152 39.5833C86.9985 40.4583 86.6652 41.6667 85.7485 42.2917L78.7902 47.1667C79.3319 50.5 79.2902 53.7917 78.7902 57L85.7485 61.875C86.6652 62.5 86.9985 63.7083 86.4152 64.5833L78.0819 79.1667C77.4985 80.0417 76.2902 80.375 75.3319 79.875L67.6235 76.2917C65.0819 78.3333 62.2485 80 59.0819 81.25L58.3319 89.5833C58.3319 90.7917 57.3735 91.6667 56.2485 91.6667H39.5819C39.0293 91.6667 38.4994 91.4472 38.1087 91.0565C37.718 90.6658 37.4985 90.1359 37.4985 89.5833L36.7485 81.25C33.5819 80 30.7485 78.3333 28.2069 76.2917L20.4985 79.875C19.5402 80.375 18.3319 80.0417 17.7485 79.1667L9.4152 64.5833C8.83187 63.7083 9.1652 62.5 10.0819 61.875L17.0402 57C16.5402 53.7917 16.4985 50.5 17.0402 47.1667L10.0819 42.2917C9.1652 41.6667 8.83187 40.4583 9.4152 39.5833L17.7485 25C18.3319 24.0417 19.5402 23.7083 20.4985 24.2083L28.2069 27.8333C30.7485 25.7917 33.5819 24.0833 36.7485 22.9167L37.4985 14.4167C37.4985 13.3333 38.4569 12.5 39.5819 12.5H56.2485ZM47.9152 37.5C51.7829 37.5 55.4923 39.0365 58.2272 41.7714C60.9621 44.5063 62.4985 48.2156 62.4985 52.0833C62.4985 55.9511 60.9621 59.6604 58.2272 62.3953C55.4923 65.1302 51.7829 66.6667 47.9152 66.6667C44.0475 66.6667 40.3381 65.1302 37.6032 62.3953C34.8683 59.6604 33.3319 55.9511 33.3319 52.0833C33.3319 48.2156 34.8683 44.5063 37.6032 41.7714C40.3381 39.0365 44.0475 37.5 47.9152 37.5ZM47.9152 41.6667C45.1525 41.6667 42.503 42.7641 40.5495 44.7176C38.596 46.6711 37.4985 49.3207 37.4985 52.0833C37.4985 54.846 38.596 57.4955 40.5495 59.449C42.503 61.4025 45.1525 62.5 47.9152 62.5C50.6779 62.5 53.3274 61.4025 55.2809 59.449C57.2344 57.4955 58.3319 54.846 58.3319 52.0833C58.3319 49.3207 57.2344 46.6711 55.2809 44.7176C53.3274 42.7641 50.6779 41.6667 47.9152 41.6667Z" fill="black"/>
</svg>
